
<svg xmlns="http://www.w3.org/2000/svg" viewBox="0 0 1200 800"><defs><clipPath id="clippath"><rect width="1200" height="800" style="fill:none"/></clipPath></defs><rect id="Background" width="1200" height="800" style="fill:#0077fe"/><g id="Graphic_Elemnets" style="clip-path:url(#clippath)"><path d="m997.72,795.94c.13-24.14-19.35-43.76-43.41-43.89-8.79-.05-16.98,2.53-23.87,6.96-5.46-17.38-21.66-30.04-40.87-30.15.2-36.42-28.94-66.15-65.24-66.82-8.68-7.37-19.93-11.8-32.22-11.74-1.04,0-2.07.1-3.09.17.05-1.26.08-2.52.08-3.79-.23-46.92-38.45-84.77-85.37-84.55-41.44.2-75.78,30.04-83.09,69.33-9.39-4.03-19.73-6.25-30.6-6.19-4.64.02-9.17.47-13.57,1.28-2.26-.69-4.58-1.25-6.95-1.67,3.57-8.69,5.54-18.22,5.54-28.21,0-41.28-33.45-74.73-74.74-74.73-11.2,0-21.83,2.46-31.36,6.89-9.08-14.4-25.11-23.95-43.35-23.95-27.27,0-49.58,21.32-51.15,48.2-4.26-1.82-8.94-2.81-13.83-2.81-14.73,0-27.36,9-32.7,21.8-5.41-4.57-11.62-8.22-18.39-10.71,2.16-5.32,3.38-11.13,3.38-17.22,0-25.29-20.5-45.8-45.8-45.8-8.54,0-16.51,2.38-23.35,6.45-6.57-17.24-23.21-29.51-42.76-29.51-5.75,0-11.23,1.11-16.31,3.04-8.76-27.33-34.36-47.13-64.6-47.13-37.47,0-67.84,30.38-67.84,67.84,0,1.38.12,2.72.21,4.08-7.15-3.06-15.02-4.77-23.29-4.77-30.58,0-55.74,23.19-58.88,52.94-4.36-1.38-9-2.13-13.81-2.13-25.29,0-45.8,20.5-45.8,45.8s20.5,45.8,45.8,45.8c7.74,0,15.02-1.94,21.41-5.32,1.32,3.38,3.04,6.56,5.09,9.49-32.31,6.76-58.75,29.39-70.84,59.33-4.13-.86-8.41-1.33-12.8-1.31-33.64.16-60.78,27.57-60.62,61.21.16,33.64,27.57,60.78,61.21,60.62,13.59-.07,26.07-4.63,36.17-12.2,17.66,16.54,41.42,26.65,67.53,26.52,24.63-.12,47.09-9.33,64.24-24.4,9.44,13.59,25.18,22.47,42.98,22.39,11.24-.05,21.59-3.71,30.07-9.81,9.41,14.15,24.56,24.15,42.11,26.64,6.51,4.57,14.44,7.25,23,7.21,8.86-.04,16.99-3.02,23.58-7.95,11.51,10.79,27,17.37,44.02,17.29,14.88-.07,28.53-5.24,39.36-13.81,2.09,1.09,4.28,2,6.56,2.71,6.16,6.09,14.63,9.84,23.97,9.8,7.32-.04,14.08-2.42,19.6-6.39,7.15,10.76,19.38,17.83,33.27,17.76,13.76-.07,25.83-7.13,32.9-17.8,4.2-2.29,8.12-5.03,11.69-8.16,6.15,8.86,16.41,14.65,28.01,14.59,7.32-.04,14.08-2.42,19.6-6.39,7.15,10.76,19.38,17.83,33.27,17.76,19.44-.09,35.51-14.15,38.84-32.61,2.18.22,4.4.33,6.64.32,16.06-.08,30.69-6.08,41.88-15.91,6.15,8.86,16.41,14.65,28.01,14.59,7.32-.04,14.08-2.42,19.6-6.39,7.15,10.76,19.38,17.83,33.27,17.76,20.34-.1,37.01-15.49,39.24-35.22,2,.29,4.04.48,6.12.47,5.7-.03,11.12-1.21,16.05-3.33l237.69,1.3c5.28-7.14,8.49-16,8.55-25.56Z" style="fill:#d7edfa"/><path d="M1239.24 119.35c-4.52 0-8.82.93-12.72 2.6-2.99-18.43-18.97-32.49-38.24-32.49-8.22 0-15.84 2.57-22.11 6.93-9.42-17.07-27.59-28.63-48.46-28.63-29.84 0-54.15 23.63-55.27 53.2-5.36-2.93-11.5-4.6-18.04-4.6-20.77 0-37.61 16.84-37.61 37.61s16.84 37.61 37.61 37.61c.07 0 .14 0 .21 0 2.21 23.17 21.71 41.29 45.45 41.29 17.25 0 32.26-9.57 40.03-23.68 3.88 1.82 8.2 2.87 12.77 2.87 7.64 0 14.6-2.86 19.91-7.55 6.62 8.23 16.75 13.5 28.13 13.5 19.94 0 36.11-16.17 36.11-36.11 0-.06 0-.11 0-.17 3.77 1.54 7.9 2.4 12.22 2.4 17.89 0 32.39-14.5 32.39-32.39s-14.5-32.39-32.39-32.39Zm-76.46 39.94c-.63-.55-1.28-1.07-1.95-1.57.32-.4.65-.81.96-1.22.62.59 1.26 1.15 1.93 1.7-.32.36-.64.72-.94 1.1ZM337.1 135.56c0-13.36-10.83-24.19-24.19-24.19-.48 0-.96.02-1.44.05-3.79-11.6-14.7-19.99-27.57-19.99-9.74 0-18.36 4.81-23.62 12.18-2.23-1.61-4.96-2.56-7.92-2.56-7.5 0-13.58 6.08-13.58 13.58 0 .02 0 .05 0 .07-12.53.92-22.4 11.36-22.4 24.12s10.83 24.19 24.19 24.19c4.44 0 8.59-1.2 12.16-3.28 2.02 11.62 12.15 20.46 24.35 20.46 8.58 0 16.13-4.37 20.56-11 2.08 1.3 4.53 2.06 7.16 2.06 7 0 12.76-5.3 13.5-12.11 10.76-2.45 18.8-12.08 18.8-23.58Z" style="fill:#fff"/><path d="m825.43,23.99c-2.76,0-5.42.43-7.92,1.22-1.8-17.06-16.22-30.36-33.76-30.36-4.74,0-9.25.98-13.35,2.73.05-.78.12-1.55.12-2.34,0-21.49-17.42-38.9-38.9-38.9-17.34,0-32.02,11.35-37.04,27.03-2.91-1.11-6.05-1.74-9.35-1.74-11.21,0-20.75,7.04-24.52,16.92-3.92-2.33-8.49-3.7-13.39-3.7-14.5,0-26.26,11.76-26.26,26.26,0,3.5.7,6.83,1.94,9.88-13.41,4.93-22.99,17.78-22.99,32.9,0,19.37,15.71,35.08,35.08,35.08,10.66,0,20.19-4.77,26.62-12.27,8.35,7.12,19.18,11.42,31.01,11.42,5.76,0,11.28-1.02,16.4-2.88,7.63,7.09,17.85,11.43,29.09,11.43,15.49,0,29.05-8.23,36.56-20.56,4.05,2.55,8.82,4.05,13.96,4.05,11.12,0,20.61-6.92,24.44-16.69,3.66,1.94,7.84,3.05,12.28,3.05,14.5,0,26.26-11.76,26.26-26.26s-11.76-26.26-26.26-26.26Z" style="fill:#d7edfa"/><path d="M239.26 614.03c-3.82 0-7.5.6-10.96 1.69-2.49-23.62-22.46-42.03-46.75-42.03-6.57 0-12.81 1.35-18.49 3.79.06-1.08.16-2.14.16-3.24 0-29.75-24.12-53.87-53.87-53.87-24.01 0-44.33 15.72-51.29 37.42-4.03-1.54-8.38-2.42-12.95-2.42-15.52 0-28.73 9.74-33.95 23.43-5.43-3.23-11.76-5.12-18.54-5.12-20.08 0-36.36 16.28-36.36 36.36 0 4.84.97 9.45 2.68 13.68-18.57 6.83-31.84 24.61-31.84 45.55 0 26.83 21.75 48.57 48.57 48.57 14.76 0 27.95-6.61 36.86-16.99 11.57 9.85 26.56 15.81 42.94 15.81 7.98 0 15.62-1.41 22.71-3.99 10.57 9.82 24.72 15.83 40.28 15.83 21.44 0 40.22-11.4 50.62-28.46 5.6 3.53 12.22 5.6 19.33 5.6 15.4 0 28.53-9.59 33.83-23.11 5.07 2.69 10.85 4.23 17 4.23 20.08 0 36.36-16.28 36.36-36.36s-16.28-36.36-36.36-36.36ZM1300.77 678c-4.38-.02-8.65.45-12.78 1.31-12.07-29.89-38.46-52.48-70.71-59.23 2.04-2.93 3.76-6.1 5.08-9.47 6.38 3.38 13.65 5.31 21.37 5.31 25.25 0 45.72-20.47 45.72-45.72s-20.47-45.72-45.72-45.72c-4.81 0-9.43.75-13.78 2.12-3.13-29.7-28.24-52.85-58.77-52.85-8.26 0-16.11 1.7-23.25 4.76.08-1.35.21-2.7.21-4.07 0-37.4-30.32-67.72-67.72-67.72-30.19 0-55.74 19.76-64.48 47.05-5.06-1.93-10.53-3.04-16.28-3.04-19.51 0-36.13 12.25-42.69 29.46-6.83-4.06-14.78-6.44-23.31-6.44-25.25 0-45.72 20.47-45.72 45.72 0 6.09 1.21 11.88 3.37 17.19-22.98 8.45-39.49 30.26-40 56.05-2.41-.35-4.87-.53-7.37-.53-18.21 0-34.2 9.53-43.27 23.91-9.51-4.42-20.12-6.88-31.3-6.88-27.99 0-52.35 15.41-65.12 38.21-10.41-5.37-22.2-8.44-34.72-8.5-10.85-.05-21.17 2.16-30.54 6.18-7.3-39.22-41.58-69-82.94-69.2-46.84-.23-84.99 37.56-85.21 84.39 0 1.27.03 2.53.08 3.78-1.03-.07-2.05-.17-3.09-.17-22.11-.11-40.89 14.34-47.27 34.34-11.51-9.37-26.22-14.96-42.22-14.87-36.65.2-66.2 30.08-66 66.73-19.17.11-35.35 12.74-40.79 30.1-6.88-4.43-15.05-7-23.83-6.95-24.02.13-43.47 19.72-43.34 43.81.05 9.55 3.26 18.38 8.53 25.51l257.14-1.41c.36-.21.72-.43 1.08-.65 5.84 3.23 12.55 5.09 19.7 5.13 2.08 0 4.11-.19 6.11-.47 2.22 19.7 18.86 35.06 39.17 35.16 13.86.07 26.07-7 33.21-17.73 5.51 3.97 12.25 6.34 19.56 6.38 11.58.06 21.82-5.72 27.96-14.57 11.16 9.81 25.77 15.8 41.8 15.88 16.99.08 32.45-6.49 43.94-17.26 6.57 4.93 14.69 7.9 23.53 7.94 19.45.09 35.69-13.85 39.14-32.32h234.84c2.81.41 5.69.63 8.62.65 3.11.02 6.17-.21 9.16-.65h143.59c11.41 0 21.4-6.07 26.91-15.16 2.74.24 5.51.39 8.32.4 26.06.13 49.78-9.96 67.41-26.47 10.08 7.56 22.54 12.11 36.1 12.18 33.58.16 60.93-26.93 61.1-60.51.16-33.58-26.93-60.93-60.51-61.1Zm-356.98-27.86c-1.31-.09-2.61-.21-3.95-.22-1.1 0-2.2.02-3.29.07 2.47-1.07 4.86-2.29 7.15-3.67 0 1.28.04 2.55.09 3.82ZM-64.25 334.47c2.12 12.59 14.03 21.09 26.63 18.97 4.01-.67 7.61-2.34 10.59-4.72.03.21.05.41.08.62 4.01 23.92 26.65 40.05 50.57 36.04 8.76-1.47 16.47-5.44 22.54-11.05 9.28 14.06 26.24 22.11 43.93 19.15 16.78-2.81 29.72-14.81 34.57-29.97 3.03.42 6.18.39 9.36-.15 7.92-1.33 14.64-5.54 19.25-11.39 7.51 5.38 17.08 7.89 26.91 6.25 19.61-3.29 32.84-21.85 29.55-41.45-3.01-17.99-18.89-30.6-36.63-30.02.07-1.72-.03-3.47-.32-5.23-2.27-13.53-15.07-22.66-28.6-20.39-3.92.66-7.46 2.2-10.48 4.39-9.14-14.59-26.45-23.02-44.48-20-7.38 1.24-14.01 4.25-19.54 8.53-9.23-14.26-26.33-22.44-44.14-19.46-19.32 3.23-33.56 18.64-36.21 37.05-3.36-.77-6.92-.91-10.53-.3-14.83 2.48-24.83 16.52-22.34 31.35.28 1.68.72 3.31 1.29 4.87-1 .04-2.01.13-3.01.29-12.59 2.12-21.09 14.03-18.98 26.63ZM1001.79 326.6c-1.3 0-2.56.13-3.77.39-4.27-10.57-14.59-18.05-26.7-18.11-4.09-.02-7.99.82-11.53 2.33-2.75-14.8-15.7-26.05-31.31-26.12-17.68-.09-32.08 14.18-32.17 31.86 0 .48.01.95.03 1.43-.39-.03-.77-.06-1.17-.06-10.29-.05-18.67 8.25-18.72 18.54-.05 10.29 8.25 18.67 18.54 18.72.94 0 1.86-.08 2.77-.21 1 8.93 8.55 15.89 17.75 15.93 6.28.03 11.81-3.17 15.05-8.04 2.5 1.8 5.55 2.88 8.86 2.89 5.25.03 9.89-2.59 12.67-6.6 5.06 4.45 11.68 7.16 18.94 7.19 7.7.04 14.7-2.94 19.91-7.82 2.98 2.23 6.66 3.58 10.66 3.6 9.92.05 18-7.95 18.05-17.87s-7.95-18-17.87-18.05Z" style="fill:#fff"/><path d="m271.47,24.17c0,14.23-11.54,25.77-25.77,25.77-3.44,0-6.72-.69-9.72-1.92v.14c0,15.87-12.86,28.73-28.72,28.73-9.06,0-17.12-4.2-22.39-10.74-4.22,3.72-9.76,6-15.83,6-3.64,0-7.08-.83-10.16-2.28-6.19,11.23-18.13,18.84-31.85,18.84-18.89,0-34.41-14.42-36.16-32.85h-.17c-16.52,0-29.92-13.39-29.92-29.91S74.18-3.97,90.7-3.97c5.2,0,10.09,1.32,14.35,3.66.89-23.53,20.23-42.33,43.97-42.33,16.6,0,31.05,9.2,38.55,22.78,4.99-3.48,11.05-5.52,17.59-5.52,15.33,0,28.04,11.19,30.42,25.85,3.11-1.33,6.53-2.07,10.12-2.07,14.23,0,25.77,11.54,25.77,25.77Z" style="fill:#d9e7f9"/><path d="M1239.24 119.35c-4.52 0-8.82.93-12.72 2.6-2.99-18.43-18.97-32.49-38.24-32.49-8.22 0-15.84 2.57-22.11 6.93-9.42-17.07-27.59-28.63-48.46-28.63-29.84 0-54.15 23.63-55.27 53.2-5.36-2.93-11.5-4.6-18.04-4.6-20.77 0-37.61 16.84-37.61 37.61s16.84 37.61 37.61 37.61c.07 0 .14 0 .21 0 2.21 23.17 21.71 41.29 45.45 41.29 17.25 0 32.26-9.57 40.03-23.68 3.88 1.82 8.2 2.87 12.77 2.87 7.64 0 14.6-2.86 19.91-7.55 6.62 8.23 16.75 13.5 28.13 13.5 19.94 0 36.11-16.17 36.11-36.11 0-.06 0-.11 0-.17 3.77 1.54 7.9 2.4 12.22 2.4 17.89 0 32.39-14.5 32.39-32.39s-14.5-32.39-32.39-32.39ZM337.1 135.56c0-13.36-10.83-24.19-24.19-24.19-.48 0-.96.02-1.44.05-3.79-11.6-14.7-19.99-27.57-19.99-9.74 0-18.36 4.81-23.62 12.18-2.23-1.61-4.96-2.56-7.92-2.56-7.5 0-13.58 6.08-13.58 13.58 0 .02 0 .05 0 .07-12.53.92-22.4 11.36-22.4 24.12s10.83 24.19 24.19 24.19c4.44 0 8.59-1.2 12.16-3.28 2.02 11.62 12.15 20.46 24.35 20.46 8.58 0 16.13-4.37 20.56-11 2.08 1.3 4.53 2.06 7.16 2.06 7 0 12.76-5.3 13.5-12.11 10.76-2.45 18.8-12.08 18.8-23.58Z" style="fill:#fff"/><path d="m825.43,23.99c-2.76,0-5.42.43-7.92,1.22-1.8-17.06-16.22-30.36-33.76-30.36-4.74,0-9.25.98-13.35,2.73.05-.78.12-1.55.12-2.34,0-21.49-17.42-38.9-38.9-38.9-17.34,0-32.02,11.35-37.04,27.03-2.91-1.11-6.05-1.74-9.35-1.74-11.21,0-20.75,7.04-24.52,16.92-3.92-2.33-8.49-3.7-13.39-3.7-14.5,0-26.26,11.76-26.26,26.26,0,3.5.7,6.83,1.94,9.88-13.41,4.93-22.99,17.78-22.99,32.9,0,19.37,15.71,35.08,35.08,35.08,10.66,0,20.19-4.77,26.62-12.27,8.35,7.12,19.18,11.42,31.01,11.42,5.76,0,11.28-1.02,16.4-2.88,7.63,7.09,17.85,11.43,29.09,11.43,15.49,0,29.05-8.23,36.56-20.56,4.05,2.55,8.82,4.05,13.96,4.05,11.12,0,20.61-6.92,24.44-16.69,3.66,1.94,7.84,3.05,12.28,3.05,14.5,0,26.26-11.76,26.26-26.26s-11.76-26.26-26.26-26.26Z" style="fill:#d9e7f9"/><path d="M239.26 614.03c-3.82 0-7.5.6-10.96 1.69-2.49-23.62-22.46-42.03-46.75-42.03-6.57 0-12.81 1.35-18.49 3.79.06-1.08.16-2.14.16-3.24 0-29.75-24.12-53.87-53.87-53.87-24.01 0-44.33 15.72-51.29 37.42-4.03-1.54-8.38-2.42-12.95-2.42-15.52 0-28.73 9.74-33.95 23.43-5.43-3.23-11.76-5.12-18.54-5.12-20.08 0-36.36 16.28-36.36 36.36 0 4.84.97 9.45 2.68 13.68-18.57 6.83-31.84 24.61-31.84 45.55 0 26.83 21.75 48.57 48.57 48.57 14.76 0 27.95-6.61 36.86-16.99 11.57 9.85 26.56 15.81 42.94 15.81 7.98 0 15.62-1.41 22.71-3.99 10.57 9.82 24.72 15.83 40.28 15.83 21.44 0 40.22-11.4 50.62-28.46 5.6 3.53 12.22 5.6 19.33 5.6 15.4 0 28.53-9.59 33.83-23.11 5.07 2.69 10.85 4.23 17 4.23 20.08 0 36.36-16.28 36.36-36.36s-16.28-36.36-36.36-36.36ZM1303.09 642.39c-4.38-.02-8.65.45-12.78 1.31-12.07-29.89-38.46-52.48-70.71-59.23 2.04-2.93 3.76-6.1 5.08-9.47 6.38 3.38 13.65 5.31 21.37 5.31 25.25 0 45.72-20.47 45.72-45.72s-20.47-45.72-45.72-45.72c-4.81 0-9.43.75-13.78 2.12-3.13-29.7-28.24-52.85-58.77-52.85-8.26 0-16.11 1.7-23.25 4.76.08-1.35.21-2.7.21-4.07 0-37.4-30.32-67.72-67.72-67.72-30.19 0-55.74 19.76-64.48 47.05-5.06-1.93-10.53-3.04-16.28-3.04-19.51 0-36.13 12.25-42.69 29.46-6.83-4.06-14.78-6.44-23.31-6.44-25.25 0-45.72 20.47-45.72 45.72 0 6.09 1.21 11.88 3.37 17.19-22.98 8.45-39.49 30.26-40 56.05-2.41-.35-4.87-.53-7.37-.53-18.21 0-34.2 9.53-43.27 23.91-9.51-4.42-20.12-6.88-31.3-6.88-27.99 0-52.36 15.41-65.12 38.21-10.41-5.37-22.2-8.44-34.72-8.51-10.85-.05-21.17 2.16-30.54 6.18-7.3-39.22-41.58-69-82.94-69.2-46.84-.23-84.99 37.56-85.21 84.39 0 1.27.03 2.53.08 3.78-1.03-.07-2.05-.17-3.09-.17-22.11-.11-40.89 14.34-47.27 34.34-11.51-9.37-26.22-14.96-42.22-14.87-36.65.2-66.2 30.08-66 66.73-19.17.1-35.35 12.74-40.79 30.1-6.88-4.43-15.05-7-23.83-6.95-24.02.13-43.47 19.72-43.34 43.81.05 9.55 3.26 18.38 8.53 25.51l257.14-1.41c.36-.21.72-.43 1.08-.65 5.84 3.23 12.55 5.09 19.7 5.13 2.08 0 4.11-.19 6.11-.47 2.22 19.7 18.86 35.06 39.17 35.16 13.86.07 26.07-7 33.21-17.73 5.51 3.97 12.25 6.35 19.56 6.38 11.58.06 21.82-5.72 27.96-14.57 11.16 9.81 25.77 15.8 41.8 15.88 16.99.08 32.45-6.49 43.94-17.26 6.57 4.93 14.69 7.9 23.53 7.94 19.45.09 43.06 21.77 46.51 3.3h370.45c262.6 5.44 218.05-91.59 218.21-125.17.16-33.58-26.93-60.93-60.51-61.1Zm-356.98-27.86c-1.31-.09-2.61-.21-3.95-.22-1.1 0-2.2.02-3.29.07 2.47-1.07 4.86-2.29 7.15-3.67 0 1.28.04 2.55.09 3.82ZM-64.25 334.47c2.12 12.59 14.03 21.09 26.63 18.97 4.01-.67 7.61-2.34 10.59-4.72.03.21.05.41.08.62 4.01 23.92 26.65 40.05 50.57 36.04 8.76-1.47 16.47-5.44 22.54-11.05 9.28 14.06 26.24 22.11 43.93 19.15 16.78-2.81 29.72-14.81 34.57-29.97 3.03.42 6.18.39 9.36-.15 7.92-1.33 14.64-5.54 19.25-11.39 7.51 5.38 17.08 7.89 26.91 6.25 19.61-3.29 32.84-21.85 29.55-41.45-3.01-17.99-18.89-30.6-36.63-30.02.07-1.72-.03-3.47-.32-5.23-2.27-13.53-15.07-22.66-28.6-20.39-3.92.66-7.46 2.2-10.48 4.39-9.14-14.59-26.45-23.02-44.48-20-7.38 1.24-14.01 4.25-19.54 8.53-9.23-14.26-26.33-22.44-44.14-19.46-19.32 3.23-33.56 18.64-36.21 37.05-3.36-.77-6.92-.91-10.53-.3-14.83 2.48-24.83 16.52-22.34 31.35.28 1.68.72 3.31 1.29 4.87-1 .04-2.01.13-3.01.29-12.59 2.12-21.09 14.03-18.98 26.63ZM1001.79 326.6c-1.3 0-2.56.13-3.77.39-4.27-10.57-14.59-18.05-26.7-18.11-4.09-.02-7.99.82-11.53 2.33-2.75-14.8-15.7-26.05-31.31-26.12-17.68-.09-32.08 14.18-32.17 31.86 0 .48.01.95.03 1.43-.39-.03-.77-.06-1.17-.06-10.29-.05-18.67 8.25-18.72 18.54-.05 10.29 8.25 18.67 18.54 18.72.94 0 1.86-.08 2.77-.21 1 8.93 8.55 15.89 17.75 15.93 6.28.03 11.81-3.17 15.05-8.04 2.5 1.8 5.55 2.88 8.86 2.89 5.25.03 9.89-2.59 12.67-6.6 5.06 4.45 11.68 7.16 18.94 7.19 7.7.04 14.7-2.94 19.91-7.82 2.98 2.23 6.66 3.58 10.66 3.6 9.92.05 18-7.95 18.05-17.87s-7.95-18-17.87-18.05Z" style="fill:#fff"/></g></svg>